<?xml version="1.0" standalone="no"?>
<!DOCTYPE svg PUBLIC "-//W3C//DTD SVG 20010904//EN"
 "http://www.w3.org/TR/2001/REC-SVG-20010904/DTD/svg10.dtd">
<svg version="1.0" xmlns="http://www.w3.org/2000/svg"
 width="1200.000000pt" height="1200.000000pt" viewBox="0 0 1200.000000 1200.000000"
 preserveAspectRatio="xMidYMid meet">
<metadata>
Created by potrace 1.14, written by Peter Selinger 2001-2017
</metadata>
<g transform="translate(0.000000,1200.000000) scale(0.100000,-0.100000)"
fill="#000000" stroke="none">
<path d="M0 6000 l0 -6000 6000 0 6000 0 0 6000 0 6000 -6000 0 -6000 0 0
-6000z m6220 4250 c865 -48 1641 -332 2345 -857 658 -490 1176 -1201 1453
-1993 414 -1182 280 -2503 -360 -3573 -619 -1034 -1642 -1761 -2808 -1996
-859 -174 -1720 -85 -2535 261 -652 277 -1283 773 -1708 1343 -339 455 -555
891 -708 1429 -311 1099 -147 2324 443 3309 285 476 668 903 1093 1220 614
459 1264 725 2015 827 265 36 498 45 770 30z"/>
<path d="M5765 9909 c-668 -38 -1346 -263 -1905 -631 -628 -414 -1126 -996
-1432 -1673 -252 -557 -372 -1197 -338 -1801 20 -365 66 -620 175 -979 239
-787 778 -1526 1475 -2022 709 -504 1595 -761 2456 -713 349 19 586 60 928
160 580 169 1145 500 1594 935 818 791 1255 1895 1192 3011 -28 496 -126 916
-317 1357 -413 954 -1196 1712 -2163 2092 -388 153 -789 240 -1220 265 -194
11 -241 11 -445 -1z m253 -2446 c40 -19 77 -73 86 -125 16 -93 -32 -858 -103
-1638 -10 -107 -17 -197 -15 -198 4 -6 304 172 457 271 605 391 1237 971 1539
1410 84 123 182 222 233 236 86 23 152 8 193 -44 67 -85 17 -279 -126 -492
-169 -251 -606 -696 -987 -1003 -222 -178 -515 -372 -792 -524 l-141 -77 45
-152 c160 -542 323 -981 486 -1301 201 -397 425 -591 736 -636 99 -15 184 -9
375 25 162 29 215 31 256 10 42 -22 61 -66 67 -156 5 -74 4 -81 -21 -113 -35
-47 -128 -90 -256 -120 -250 -59 -463 -71 -637 -36 -192 38 -301 88 -464 211
-388 293 -710 988 -954 2059 -19 85 -38 166 -41 180 -4 16 -24 -66 -59 -235
-184 -903 -427 -1491 -748 -1807 -238 -235 -451 -318 -816 -318 -286 0 -465
39 -537 117 -31 34 -33 118 -3 183 28 63 94 145 135 170 44 25 79 25 224 0
229 -39 377 -15 557 91 71 42 256 223 310 304 340 507 529 1370 583 2660 5
132 10 337 10 456 l0 216 -92 -22 c-568 -135 -917 -410 -1048 -825 -49 -157
-61 -318 -46 -603 l9 -168 -45 -43 c-50 -48 -112 -73 -198 -82 -51 -6 -59 -3
-105 27 -109 74 -136 153 -142 419 -4 158 -2 202 16 300 74 413 306 752 686
1003 231 152 595 284 965 351 80 14 168 30 195 35 64 13 169 5 213 -16z"/>
</g>
</svg>
